STARTFONT 2.1
FONT -Adobe-Utopia-Regular-I-Normal--25-240-75-75-P-133-ISO8859-2
SIZE 24 75 75
FONTBOUNDINGBOX 33 26 -6 -5
STARTPROPERTIES 29
FOUNDRY "Adobe"
FAMILY_NAME "Utopia"
WEIGHT_NAME "Regular"
SLANT "I"
SETWIDTH_NAME "Normal"
ADD_STYLE_NAME ""
PIXEL_SIZE 25
POINT_SIZE 240
RESOLUTION_X 75
RESOLUTION_Y 75
SPACING "P"
AVERAGE_WIDTH 133
CHARSET_REGISTRY "ISO8859"
CHARSET_ENCODING "2"
CAP_HEIGHT 17
X_HEIGHT 12
RELATIVE_SETWIDTH 50
RELATIVE_WEIGHT 50
WEIGHT 130
FACE_NAME "Utopia Italic"
COPYRIGHT "Copyright (c) 1989, 1991 Adobe Systems Incorporated.  All rights reserved., Copyright 1996 Cub Soft"
NOTICE "Utopia is a registered trademark of Adobe Systems Incorporated."
DESTINATION 0
FONT_ASCENT 21
FONT_DESCENT 5
DEFAULT_CHAR 32
_ADOBE_PSFONT "Utopia-Italic"
_ADOBE_XFONT "-Adobe-Utopia-Regular-I-Normal--25-240-75-75-P-133-ISO8859-2"
_DEC_DEVICE_FONTNAMES "PS=Utopia-Italic"
ENDPROPERTIES
CHARS 191
STARTCHAR space
ENCODING 32
SWIDTH 225 0
DWIDTH 5 0
BBX 0 0 0 0
BITMAP
ENDCHAR
STARTCHAR exclam
ENCODING 33
SWIDTH 240 0
DWIDTH 6 0
BBX 6 17 0 0
BITMAP
1c
1c
1c
18
18
38
30
30
30
20
20
00
00
00
60
f0
60
ENDCHAR
STARTCHAR quotedbl
ENCODING 34
SWIDTH 402 0
DWIDTH 9 0
BBX 7 7 1 10
BITMAP
66
66
66
cc
cc
88
88
ENDCHAR
STARTCHAR numbersign
ENCODING 35
SWIDTH 530 0
DWIDTH 13 0
BBX 13 17 0 0
BITMAP
0630
0630
0630
0c60
0c60
3ff8
0c60
18c0
18c0
18c0
3180
ffe0
3180
3180
6300
6300
6300
ENDCHAR
STARTCHAR dollar
ENCODING 36
SWIDTH 530 0
DWIDTH 13 0
BBX 12 21 0 -2
BITMAP
0080
0080
07e0
0d70
1930
3900
3a00
3a00
3e00
1e00
0f00
0780
07c0
05c0
05c0
09c0
c980
eb00
7e00
1000
1000
ENDCHAR
STARTCHAR percent
ENCODING 37
SWIDTH 826 0
DWIDTH 20 0
BBX 16 17 1 0
BITMAP
1e06
23fc
6308
4310
c330
c220
c640
4480
799e
0122
0263
0443
0cc3
08c2
10c6
2044
6078
ENDCHAR
STARTCHAR ampersand
ENCODING 38
SWIDTH 725 0
DWIDTH 19 0
BBX 17 17 1 0
BITMAP
01e000
063000
0c3000
0c3000
0c6000
06c000
070000
0f0180
3b8380
718380
e0c300
e0e600
e07c00
e03800
e03c00
70ce00
1f0780
ENDCHAR
STARTCHAR apostrophe
ENCODING 39
SWIDTH 216 0
DWIDTH 5 0
BBX 5 6 0 11
BITMAP
30
78
30
20
40
80
ENDCHAR
STARTCHAR parenleft
ENCODING 40
SWIDTH 350 0
DWIDTH 9 0
BBX 8 20 2 -3
BITMAP
03
0c
18
18
30
30
60
60
60
60
c0
c0
c0
c0
c0
c0
c0
c0
40
30
ENDCHAR
STARTCHAR parenright
ENCODING 41
SWIDTH 350 0
DWIDTH 9 0
BBX 8 20 -1 -3
BITMAP
0c
02
03
03
03
03
03
03
03
03
06
06
06
06
0c
0c
18
18
30
c0
ENDCHAR
STARTCHAR asterisk
ENCODING 42
SWIDTH 412 0
DWIDTH 10 0
BBX 8 8 1 9
BITMAP
0c
6c
6b
1f
f8
d6
36
30
ENDCHAR
STARTCHAR plus
ENCODING 43
SWIDTH 570 0
DWIDTH 14 0
BBX 12 12 1 0
BITMAP
0600
0600
0600
0600
0600
fff0
fff0
0600
0600
0600
0600
0600
ENDCHAR
STARTCHAR comma
ENCODING 44
SWIDTH 265 0
DWIDTH 6 0
BBX 5 6 -1 -3
BITMAP
30
78
30
20
40
80
ENDCHAR
STARTCHAR minus
ENCODING 45
SWIDTH 570 0
DWIDTH 14 0
BBX 12 2 1 5
BITMAP
fff0
fff0
ENDCHAR
STARTCHAR period
ENCODING 46
SWIDTH 265 0
DWIDTH 6 0
BBX 4 3 0 0
BITMAP
60
f0
60
ENDCHAR
STARTCHAR slash
ENCODING 47
SWIDTH 270 0
DWIDTH 11 0
BBX 8 17 1 0
BITMAP
03
03
06
06
06
0c
0c
18
18
18
30
30
60
60
60
c0
c0
ENDCHAR
STARTCHAR zero
ENCODING 48
SWIDTH 530 0
DWIDTH 13 0
BBX 12 17 0 0
BITMAP
03c0
0ce0
1870
3870
3870
7070
7070
7070
e070
e0e0
e0e0
e0e0
e1c0
e1c0
e180
7300
3e00
ENDCHAR
STARTCHAR one
ENCODING 49
SWIDTH 530 0
DWIDTH 13 0
BBX 9 17 0 0
BITMAP
0380
0f80
0380
0380
0700
0700
0700
0700
0e00
0e00
0e00
0e00
1c00
1c00
1c00
3c00
ff00
ENDCHAR
STARTCHAR two
ENCODING 50
SWIDTH 530 0
DWIDTH 13 0
BBX 12 17 0 0
BITMAP
07c0
1ce0
3870
3070
0070
0070
0060
00c0
0180
0300
0c00
1800
3000
6020
e060
ffc0
ffc0
ENDCHAR
STARTCHAR three
ENCODING 51
SWIDTH 530 0
DWIDTH 13 0
BBX 12 17 0 0
BITMAP
07c0
1ce0
3870
3070
0070
00e0
01c0
0f80
01c0
00e0
00e0
00e0
00e0
01c0
c1c0
e380
7f00
ENDCHAR
STARTCHAR four
ENCODING 52
SWIDTH 530 0
DWIDTH 13 0
BBX 11 17 0 0
BITMAP
01c0
03c0
0380
0700
0640
0cc0
1dc0
39c0
31c0
6380
c380
c380
ffe0
0700
0700
0f00
3fc0
ENDCHAR
STARTCHAR five
ENCODING 53
SWIDTH 530 0
DWIDTH 13 0
BBX 12 17 0 0
BITMAP
0ff0
0fe0
0800
1800
1000
3000
3f00
2180
00c0
00e0
00e0
00e0
00e0
01c0
c1c0
e380
7f00
ENDCHAR
STARTCHAR six
ENCODING 54
SWIDTH 530 0
DWIDTH 13 0
BBX 12 17 0 0
BITMAP
03e0
0c70
1830
3800
3800
7000
7000
7f80
f1c0
e0e0
e0e0
e0e0
e0e0
e1c0
e1c0
7380
3e00
ENDCHAR
STARTCHAR seven
ENCODING 55
SWIDTH 530 0
DWIDTH 13 0
BBX 12 17 1 0
BITMAP
7ff0
7ff0
c060
8040
0080
0180
0100
0300
0600
0600
0e00
0e00
1c00
1c00
1c00
1c00
0800
ENDCHAR
STARTCHAR eight
ENCODING 56
SWIDTH 530 0
DWIDTH 13 0
BBX 12 17 0 0
BITMAP
03c0
0c60
1830
3830
3830
3830
1c60
0fc0
1f80
31c0
60e0
e0e0
e0e0
e0e0
e0c0
7180
3e00
ENDCHAR
STARTCHAR nine
ENCODING 57
SWIDTH 530 0
DWIDTH 13 0
BBX 12 17 0 0
BITMAP
07c0
1ce0
3870
3870
7070
7070
7070
7070
38f0
1fe0
00e0
00e0
01c0
01c0
c180
e300
7c00
ENDCHAR
STARTCHAR colon
ENCODING 58
SWIDTH 265 0
DWIDTH 6 0
BBX 6 13 0 0
BITMAP
18
3c
18
00
00
00
00
00
00
00
60
f0
60
ENDCHAR
STARTCHAR semicolon
ENCODING 59
SWIDTH 265 0
DWIDTH 6 0
BBX 7 16 -1 -3
BITMAP
0c
1e
0c
00
00
00
00
00
00
00
30
78
30
20
40
80
ENDCHAR
STARTCHAR less
ENCODING 60
SWIDTH 570 0
DWIDTH 14 0
BBX 12 12 1 0
BITMAP
0030
00f0
03c0
0f00
3c00
f000
f000
3c00
0f00
03c0
00f0
0030
ENDCHAR
STARTCHAR equal
ENCODING 61
SWIDTH 570 0
DWIDTH 14 0
BBX 12 7 1 2
BITMAP
fff0
fff0
0000
0000
0000
fff0
fff0
ENDCHAR
STARTCHAR greater
ENCODING 62
SWIDTH 570 0
DWIDTH 14 0
BBX 12 12 1 0
BITMAP
c000
f000
3c00
0f00
03c0
00f0
00f0
03c0
0f00
3c00
f000
c000
ENDCHAR
STARTCHAR question
ENCODING 63
SWIDTH 425 0
DWIDTH 11 0
BBX 8 17 1 0
BITMAP
3e
67
c3
c3
03
06
0c
30
60
c0
c8
70
00
00
60
f0
60
ENDCHAR
STARTCHAR at
ENCODING 64
SWIDTH 794 0
DWIDTH 19 0
BBX 17 17 1 0
BITMAP
03f800
0e0e00
180300
300100
60f980
431880
c61880
c61880
cc3180
cc3100
cc7300
ccb600
471c00
600000
300000
1c0c00
07f800
ENDCHAR
STARTCHAR A
ENCODING 65
SWIDTH 624 0
DWIDTH 16 0
BBX 17 17 -2 0
BITMAP
001800
003800
003800
007800
007800
00b800
009c00
011c00
011c00
021c00
07fc00
041c00
080e00
080e00
100e00
300e00
fc3f80
ENDCHAR
STARTCHAR B
ENCODING 66
SWIDTH 632 0
DWIDTH 16 0
BBX 16 17 -1 0
BITMAP
1ffc
078e
0707
0707
0707
0e07
0e0e
0e1c
0ff0
0e1c
0e0e
1c0e
1c0e
1c0e
1c1e
3c3c
fff0
ENDCHAR
STARTCHAR C
ENCODING 67
SWIDTH 661 0
DWIDTH 17 0
BBX 16 17 1 0
BITMAP
03fe
0f07
1c03
3802
7002
7000
7000
e000
e000
e000
e000
e000
e002
7006
700c
381c
0fe0
ENDCHAR
STARTCHAR D
ENCODING 68
SWIDTH 763 0
DWIDTH 19 0
BBX 19 17 -1 0
BITMAP
1ffe00
078380
0701c0
0701c0
0700e0
0e00e0
0e00e0
0e00e0
0e00e0
0e00e0
0e01c0
1c01c0
1c01c0
1c0380
1c0700
3c1e00
fff800
ENDCHAR
STARTCHAR E
ENCODING 69
SWIDTH 596 0
DWIDTH 15 0
BBX 15 17 -1 0
BITMAP
1ffe
0786
0704
0704
0700
0e00
0e08
0e08
0ff8
0e10
0e10
1c00
1c00
1c04
1c0c
3c18
fff8
ENDCHAR
STARTCHAR F
ENCODING 70
SWIDTH 571 0
DWIDTH 14 0
BBX 15 17 -1 0
BITMAP
1ffe
0786
0704
0704
0700
0e00
0e08
0e08
0ff8
0e10
0e10
1c00
1c00
1c00
1c00
3c00
ff00
ENDCHAR
STARTCHAR G
ENCODING 71
SWIDTH 709 0
DWIDTH 18 0
BBX 17 17 1 0
BITMAP
03fe00
0f0700
1c0300
380200
700200
700000
700000
e00000
e00000
e00000
e03f80
e00e00
e00e00
701c00
701c00
383c00
0ff000
ENDCHAR
STARTCHAR H
ENCODING 72
SWIDTH 775 0
DWIDTH 19 0
BBX 21 17 -1 0
BITMAP
1fe7f8
0781e0
0701c0
0701c0
0701c0
0e0380
0e0380
0e0380
0fff80
0e0380
0e0380
1c0700
1c0700
1c0700
1c0700
3c0f00
fe3fc0
ENDCHAR
STARTCHAR I
ENCODING 73
SWIDTH 345 0
DWIDTH 9 0
BBX 11 17 -1 0
BITMAP
1fe0
0780
0700
0700
0700
0e00
0e00
0e00
0e00
0e00
0e00
1c00
1c00
1c00
1c00
3c00
ff00
ENDCHAR
STARTCHAR J
ENCODING 74
SWIDTH 352 0
DWIDTH 8 0
BBX 12 21 -3 -4
BITMAP
0ff0
03c0
0380
0380
0380
0700
0700
0700
0700
0700
0700
0e00
0e00
0e00
0e00
0e00
1c00
1c00
1c00
3800
e000
ENDCHAR
STARTCHAR K
ENCODING 75
SWIDTH 650 0
DWIDTH 16 0
BBX 18 17 -1 0
BITMAP
1fe7c0
078300
070200
070400
070800
0e1000
0e2000
0e4000
0ec000
0fe000
0ef000
1c7800
1c3c00
1c1c00
1c1e00
3c0f00
ff07c0
ENDCHAR
STARTCHAR L
ENCODING 76
SWIDTH 565 0
DWIDTH 14 0
BBX 14 17 -1 0
BITMAP
1fe0
0780
0700
0700
0700
0e00
0e00
0e00
0e00
0e00
0e00
1c00
1c00
1c04
1c0c
3c18
fff8
ENDCHAR
STARTCHAR M
ENCODING 77
SWIDTH 920 0
DWIDTH 23 0
BBX 25 17 -1 0
BITMAP
1f800f80
07801e00
07801c00
07803c00
05c07c00
05c05c00
0dc09c00
09c1b800
08e13800
08e23800
08e63800
18e43800
10787000
10787000
10707000
3070f000
fc23fc00
ENDCHAR
STARTCHAR N
ENCODING 78
SWIDTH 763 0
DWIDTH 19 0
BBX 21 17 -1 0
BITMAP
1f81f8
078060
07c040
05c040
05e040
04e040
0cf0c0
087080
087880
083880
083c80
181d80
101f00
100f00
100f00
300700
fc0700
ENDCHAR
STARTCHAR O
ENCODING 79
SWIDTH 753 0
DWIDTH 19 0
BBX 17 17 1 0
BITMAP
03f800
0f0e00
1c0700
380700
700380
700380
700380
e00380
e00380
e00380
e00700
e00700
e00700
700e00
701c00
387800
0fe000
ENDCHAR
STARTCHAR P
ENCODING 80
SWIDTH 614 0
DWIDTH 15 0
BBX 16 17 -1 0
BITMAP
1ffc
078e
0707
0707
0707
0e07
0e0e
0e1c
0ff0
0e00
0e00
1c00
1c00
1c00
1c00
3c00
ff00
ENDCHAR
STARTCHAR Q
ENCODING 81
SWIDTH 753 0
DWIDTH 19 0
BBX 17 22 1 -5
BITMAP
03f800
0f0e00
1c0700
380700
700380
700380
700380
e00380
e00380
e00380
e00700
e00700
e00700
700e00
701c00
387800
0fe000
01c000
00e000
00f000
007800
001e00
ENDCHAR
STARTCHAR R
ENCODING 82
SWIDTH 640 0
DWIDTH 16 0
BBX 17 17 -1 0
BITMAP
1ffc00
078e00
070700
070700
070700
0e0700
0e0e00
0e1c00
0ff000
0e3800
0e3c00
1c1c00
1c1c00
1c1c00
1c1e00
3c0e00
ff0f80
ENDCHAR
STARTCHAR S
ENCODING 83
SWIDTH 533 0
DWIDTH 13 0
BBX 13 17 0 0
BITMAP
07f0
1c38
1818
3810
3810
3800
3c00
1f00
0f80
03c0
01e0
00e0
40e0
40e0
c0c0
e1c0
7f00
ENDCHAR
STARTCHAR T
ENCODING 84
SWIDTH 606 0
DWIDTH 15 0
BBX 14 17 1 0
BITMAP
fffc
c78c
8704
0700
0700
0e00
0e00
0e00
0e00
0e00
0e00
1c00
1c00
1c00
1c00
3c00
ff00
ENDCHAR
STARTCHAR U
ENCODING 85
SWIDTH 794 0
DWIDTH 20 0
BBX 18 17 2 0
BITMAP
ff3fc0
3c0f00
380e00
380e00
380e00
700e00
701c00
701c00
701c00
701c00
e01c00
e03800
e03800
e03800
e07000
70e000
3fc000
ENDCHAR
STARTCHAR V
ENCODING 86
SWIDTH 637 0
DWIDTH 16 0
BBX 17 17 1 0
BITMAP
fe1f80
380600
380400
380800
380800
381000
1c1000
1c2000
1c4000
1c4000
1c8000
1c8000
0f0000
0f0000
0e0000
0e0000
0c0000
ENDCHAR
STARTCHAR W
ENCODING 87
SWIDTH 946 0
DWIDTH 23 0
BBX 24 17 1 0
BITMAP
fe1c3f
381c0c
381c08
383c10
383c10
385c20
385c20
389c40
1c8e40
1d0e80
1d0e80
1e0f00
1e0f00
1c0e00
1c0e00
180c00
180c00
ENDCHAR
STARTCHAR X
ENCODING 88
SWIDTH 632 0
DWIDTH 16 0
BBX 18 17 -1 0
BITMAP
1f8fc0
070700
070600
038c00
038800
01d800
01f000
00e000
00e000
01f000
037000
023800
043800
0c1c00
181c00
380e00
fc3f80
ENDCHAR
STARTCHAR Y
ENCODING 89
SWIDTH 591 0
DWIDTH 15 0
BBX 17 17 0 0
BITMAP
ff1f80
3c0600
1c0c00
1c0800
1c1000
0e3000
0e6000
0e4000
0f8000
078000
070000
070000
0e0000
0e0000
0e0000
1e0000
7f8000
ENDCHAR
STARTCHAR Z
ENCODING 90
SWIDTH 622 0
DWIDTH 16 0
BBX 16 17 0 0
BITMAP
1fff
180f
101e
103c
0078
0070
00e0
01e0
03c0
0780
0700
0e00
1c00
3c04
780c
f018
fff8
ENDCHAR
STARTCHAR bracketleft
ENCODING 91
SWIDTH 330 0
DWIDTH 8 0
BBX 8 20 0 -3
BITMAP
0f
0c
0c
08
18
18
18
10
30
30
30
20
60
60
60
40
c0
c0
c0
f0
ENDCHAR
STARTCHAR backslash
ENCODING 92
SWIDTH 390 0
DWIDTH 10 0
BBX 8 17 1 0
BITMAP
c0
c0
60
60
60
30
30
18
18
18
0c
0c
06
06
06
03
03
ENDCHAR
STARTCHAR bracketright
ENCODING 93
SWIDTH 330 0
DWIDTH 8 0
BBX 8 20 0 -3
BITMAP
0f
03
03
03
02
06
06
06
04
0c
0c
0c
08
18
18
18
10
30
30
f0
ENDCHAR
STARTCHAR asciicircum
ENCODING 94
SWIDTH 570 0
DWIDTH 14 0
BBX 10 10 2 7
BITMAP
0c00
0c00
1e00
1e00
3300
3300
6180
6180
c0c0
c0c0
ENDCHAR
STARTCHAR underscore
ENCODING 95
SWIDTH 500 0
DWIDTH 12 0
BBX 12 1 0 -4
BITMAP
fff0
ENDCHAR
STARTCHAR grave
ENCODING 96
SWIDTH 400 0
DWIDTH 10 0
BBX 6 5 2 14
BITMAP
40
e0
70
18
04
ENDCHAR
STARTCHAR a
ENCODING 97
SWIDTH 561 0
DWIDTH 14 0
BBX 13 13 1 0
BITMAP
0770
1cf0
3870
7870
70e0
f0e0
e0e0
e0e0
e1c0
e1c0
e3c8
65d0
38e0
ENDCHAR
STARTCHAR b
ENCODING 98
SWIDTH 559 0
DWIDTH 14 0
BBX 12 19 1 0
BITMAP
1c00
7c00
1c00
1c00
3800
3800
39c0
3a60
3c70
7870
7070
7070
7070
70f0
60e0
e1e0
e1c0
f380
ee00
ENDCHAR
STARTCHAR c
ENCODING 99
SWIDTH 441 0
DWIDTH 12 0
BBX 11 13 1 0
BITMAP
07c0
1ce0
3860
7840
7000
f000
e000
e000
e000
e000
e080
7100
3e00
ENDCHAR
STARTCHAR d
ENCODING 100
SWIDTH 587 0
DWIDTH 14 0
BBX 13 19 1 0
BITMAP
0038
00f8
0038
0038
0038
0070
07f0
1c70
3870
7870
70e0
f0e0
e0e0
e0e0
e1c0
e1c0
e3c8
65d0
38e0
ENDCHAR
STARTCHAR e
ENCODING 101
SWIDTH 453 0
DWIDTH 12 0
BBX 11 13 1 0
BITMAP
07c0
1ce0
38e0
78e0
71c0
f180
e600
f800
e000
e000
e080
7100
3e00
ENDCHAR
STARTCHAR f
ENCODING 102
SWIDTH 315 0
DWIDTH 8 0
BBX 14 24 -3 -5
BITMAP
0038
005c
00c8
01c0
01c0
01c0
07f0
0380
0380
0380
0380
0700
0700
0700
0700
0700
0e00
0e00
0e00
0e00
0e00
4c00
e800
7000
ENDCHAR
STARTCHAR g
ENCODING 103
SWIDTH 499 0
DWIDTH 13 0
BBX 14 18 -1 -5
BITMAP
03ec
0678
0c38
1c38
1c38
1c30
0e60
07c0
0c00
1c00
1f00
1fe0
31f0
6070
e070
e060
f0c0
3f00
ENDCHAR
STARTCHAR h
ENCODING 104
SWIDTH 607 0
DWIDTH 15 0
BBX 14 19 1 0
BITMAP
1c00
7c00
1c00
1c00
1c00
3800
3870
38b8
3938
3a38
7438
7870
7070
7070
7070
e0e0
e0e4
e0e8
e070
ENDCHAR
STARTCHAR i
ENCODING 105
SWIDTH 317 0
DWIDTH 7 0
BBX 6 18 1 0
BITMAP
18
3c
18
00
00
38
f8
38
38
70
70
70
70
e0
e0
e4
e8
70
ENDCHAR
STARTCHAR j
ENCODING 106
SWIDTH 309 0
DWIDTH 7 0
BBX 10 23 -3 -5
BITMAP
0180
03c0
0180
0000
0000
0380
0f80
0380
0380
0380
0700
0700
0700
0700
0700
0e00
0e00
0e00
0e00
0e00
4c00
e800
7000
ENDCHAR
STARTCHAR k
ENCODING 107
SWIDTH 545 0
DWIDTH 14 0
BBX 13 19 1 0
BITMAP
1c00
7c00
1c00
1c00
1c00
3800
3810
3838
3870
3880
7100
7300
7f00
7780
7380
e1c0
e1e8
e0f0
e060
ENDCHAR
STARTCHAR l
ENCODING 108
SWIDTH 306 0
DWIDTH 7 0
BBX 6 19 1 0
BITMAP
1c
7c
1c
1c
38
38
38
38
38
70
70
70
70
70
e0
e0
e4
e8
70
ENDCHAR
STARTCHAR m
ENCODING 109
SWIDTH 912 0
DWIDTH 23 0
BBX 22 13 1 0
BITMAP
387070
f8b8b8
393938
3a3a38
743c38
783870
707070
707070
707070
e0e0e0
e0e0e4
e0e0e8
e0e070
ENDCHAR
STARTCHAR n
ENCODING 110
SWIDTH 618 0
DWIDTH 15 0
BBX 14 13 1 0
BITMAP
3870
f8b8
3938
3a38
7438
7870
7070
7070
7070
e0e0
e0e4
e0e8
e070
ENDCHAR
STARTCHAR o
ENCODING 111
SWIDTH 537 0
DWIDTH 14 0
BBX 12 13 1 0
BITMAP
07c0
1ce0
3870
7870
7070
f070
e070
e0f0
e0e0
e1e0
e1c0
7380
3e00
ENDCHAR
STARTCHAR p
ENCODING 112
SWIDTH 590 0
DWIDTH 14 0
BBX 13 18 0 -5
BITMAP
1ce0
7d30
1e38
1c38
3838
3838
3838
3878
3870
70f0
70e0
79c0
7700
7000
e000
e000
e000
e000
ENDCHAR
STARTCHAR q
ENCODING 113
SWIDTH 559 0
DWIDTH 14 0
BBX 12 19 1 -5
BITMAP
0010
0730
1cf0
3870
7870
70e0
f0e0
e0e0
e0e0
e0e0
e1c0
e3c0
65c0
39c0
01c0
0380
0380
0380
0380
ENDCHAR
STARTCHAR r
ENCODING 114
SWIDTH 402 0
DWIDTH 10 0
BBX 10 13 1 0
BITMAP
3980
fbc0
3f80
3800
3800
7000
7000
7000
7000
e000
e000
e000
e000
ENDCHAR
STARTCHAR s
ENCODING 115
SWIDTH 389 0
DWIDTH 10 0
BBX 10 13 0 0
BITMAP
0f80
19c0
30c0
3000
3800
3c00
1e00
0f00
0700
0300
c300
e600
7c00
ENDCHAR
STARTCHAR t
ENCODING 116
SWIDTH 341 0
DWIDTH 9 0
BBX 8 16 2 0
BITMAP
08
18
38
ff
38
38
70
70
70
70
70
e0
e2
e4
e8
70
ENDCHAR
STARTCHAR u
ENCODING 117
SWIDTH 618 0
DWIDTH 15 0
BBX 14 13 1 0
BITMAP
3838
f838
3838
3838
7070
7070
7070
70f0
e170
e2e4
e4e4
e8e8
7070
ENDCHAR
STARTCHAR v
ENCODING 118
SWIDTH 510 0
DWIDTH 13 0
BBX 12 13 1 0
BITMAP
3830
f870
3830
3830
7060
7060
7060
70c0
e080
e100
e200
e400
7800
ENDCHAR
STARTCHAR w
ENCODING 119
SWIDTH 785 0
DWIDTH 20 0
BBX 19 13 1 0
BITMAP
387060
f870e0
387060
387060
70e0c0
70e0c0
70e0c0
70e180
e0c100
e1c200
e2c400
e4c800
787000
ENDCHAR
STARTCHAR x
ENCODING 120
SWIDTH 516 0
DWIDTH 13 0
BBX 13 13 0 0
BITMAP
0e18
3e38
0e68
0ec0
0780
0700
0700
0700
0f00
1b80
b390
e3a0
c1c0
ENDCHAR
STARTCHAR y
ENCODING 121
SWIDTH 468 0
DWIDTH 12 0
BBX 14 18 -2 -5
BITMAP
0e0c
3e0c
0e08
0e10
0e10
0720
0720
0740
0740
0780
0780
0700
0700
0600
0600
4400
e800
7000
ENDCHAR
STARTCHAR z
ENCODING 122
SWIDTH 468 0
DWIDTH 12 0
BBX 12 13 0 0
BITMAP
1ff0
1fe0
3040
2080
0100
0200
0400
0800
1000
3c20
7f20
cfc0
c380
ENDCHAR
STARTCHAR braceleft
ENCODING 123
SWIDTH 340 0
DWIDTH 8 0
BBX 8 20 0 -3
BITMAP
07
0c
0c
0c
18
18
18
18
30
e0
20
30
30
30
60
60
60
60
60
38
ENDCHAR
STARTCHAR bar
ENCODING 124
SWIDTH 270 0
DWIDTH 7 0
BBX 2 17 2 0
BITMAP
c0
c0
c0
c0
c0
c0
c0
c0
c0
c0
c0
c0
c0
c0
c0
c0
c0
ENDCHAR
STARTCHAR braceright
ENCODING 125
SWIDTH 340 0
DWIDTH 8 0
BBX 8 20 0 -3
BITMAP
1c
06
06
06
06
0c
0c
0c
04
07
0c
18
18
18
18
30
30
30
30
e0
ENDCHAR
STARTCHAR asciitilde
ENCODING 126
SWIDTH 570 0
DWIDTH 15 0
BBX 11 3 3 5
BITMAP
3820
7fc0
8380
ENDCHAR
STARTCHAR nobreakspace
ENCODING 160
SWIDTH 225 0
DWIDTH 5 0
BBX 0 0 0 0
BITMAP
ENDCHAR
STARTCHAR Aogonek
ENCODING 161
SWIDTH 624 0
DWIDTH 16 0
BBX 17 22 -2 -5
BITMAP
001800
003800
003800
007800
007800
00b800
009c00
011c00
011c00
021c00
07fc00
041c00
080e00
080e00
100e00
300e00
fc3f80
00c000
018000
030000
032000
01c000
ENDCHAR
STARTCHAR breve
ENCODING 162
SWIDTH 400 0
DWIDTH 10 0
BBX 7 3 1 14
BITMAP
82
fe
7c
ENDCHAR
STARTCHAR Lstroke
ENCODING 163
SWIDTH 571 0
DWIDTH 14 0
BBX 14 17 -1 0
BITMAP
1fe0
0780
0700
0700
0760
0780
0e00
0e00
1e00
6e00
0e00
1c00
1c00
1c04
1c0c
3c18
fff8
ENDCHAR
STARTCHAR currency
ENCODING 164
SWIDTH 530 0
DWIDTH 13 0
BBX 11 13 1 2
BITMAP
8020
df60
71c0
60c0
c060
c060
c060
c060
c060
60c0
71c0
df60
8020
ENDCHAR
STARTCHAR Lcaron
ENCODING 165
SWIDTH 680 0
DWIDTH 17 0
BBX 17 19 -1 0
BITMAP
000300
000780
1fe300
078200
070400
070800
070000
0e0000
0e0000
0e0000
0e0000
0e0000
0e0000
1c0000
1c0000
1c0400
1c0c00
3c1800
fff800
ENDCHAR
STARTCHAR Sacute
ENCODING 166
SWIDTH 533 0
DWIDTH 13 0
BBX 14 23 0 0
BITMAP
0008
001c
0038
0060
0080
0000
07f0
1c38
1818
3810
3810
3800
3c00
1f00
0f80
03c0
01e0
00e0
40e0
40e0
c0c0
e1c0
7f00
ENDCHAR
STARTCHAR section
ENCODING 167
SWIDTH 530 0
DWIDTH 13 0
BBX 12 21 0 -4
BITMAP
03e0
0c70
1830
1800
1800
1c00
2e00
4700
41c0
40e0
6060
7020
3820
0e20
0740
0380
0180
0100
c100
e200
7c00
ENDCHAR
STARTCHAR diaeresis
ENCODING 168
SWIDTH 400 0
DWIDTH 10 0
BBX 6 2 2 14
BITMAP
cc
cc
ENDCHAR
STARTCHAR Scaron
ENCODING 169
SWIDTH 533 0
DWIDTH 13 0
BBX 13 22 0 0
BITMAP
0630
0360
01c0
0080
0000
07f0
1c38
1818
3810
3810
3800
3c00
1f00
0f80
03c0
01e0
00e0
40e0
40e0
c0c0
e1c0
7f00
ENDCHAR
STARTCHAR Scedilla
ENCODING 170
SWIDTH 533 0
DWIDTH 13 0
BBX 13 22 0 -5
BITMAP
07f0
1c38
1818
3810
3810
3800
3c00
1f00
0f80
03c0
01e0
00e0
40e0
40e0
c0c0
e1c0
7f00
0100
0300
0180
0180
0700
ENDCHAR
STARTCHAR Tcaron
ENCODING 171
SWIDTH 606 0
DWIDTH 15 0
BBX 14 22 1 0
BITMAP
0c60
06c0
0380
0100
0000
fffc
c78c
8704
0700
0700
0e00
0e00
0e00
0e00
0e00
0e00
1c00
1c00
1c00
1c00
3c00
ff00
ENDCHAR
STARTCHAR Zacute
ENCODING 172
SWIDTH 622 0
DWIDTH 16 0
BBX 16 23 0 0
BITMAP
0004
000e
001c
0030
0040
0000
1fff
180f
101e
103c
0078
0070
00e0
01e0
03c0
0780
0700
0e00
1c00
3c04
780c
f018
fff8
ENDCHAR
STARTCHAR hyphen
ENCODING 173
SWIDTH 392 0
DWIDTH 10 0
BBX 7 2 1 5
BITMAP
7e
fc
ENDCHAR
STARTCHAR Zcaron
ENCODING 174
SWIDTH 622 0
DWIDTH 16 0
BBX 16 22 0 0
BITMAP
0318
01b0
00e0
0040
0000
1fff
180f
101e
103c
0078
0070
00e0
01e0
03c0
0780
0700
0e00
1c00
3c04
780c
f018
fff8
ENDCHAR
STARTCHAR Zabovedot
ENCODING 175
SWIDTH 622 0
DWIDTH 16 0
BBX 16 20 0 0
BITMAP
0060
0060
0000
1fff
180f
101e
103c
0078
0070
00e0
01e0
03c0
0780
0700
0e00
1c00
3c04
780c
f018
fff8
ENDCHAR
STARTCHAR degree
ENCODING 176
SWIDTH 400 0
DWIDTH 10 0
BBX 6 6 2 11
BITMAP
78
cc
84
84
cc
78
ENDCHAR
STARTCHAR aogonek
ENCODING 177
SWIDTH 561 0
DWIDTH 14 0
BBX 13 18 1 -5
BITMAP
0770
1cf0
3870
7870
70e0
f0e0
e0e0
e0e0
e1c0
e1c0
e3c8
65d0
38e0
0300
0600
0c00
0c80
0700
ENDCHAR
STARTCHAR ogonek
ENCODING 178
SWIDTH 350 0
DWIDTH 9 0
BBX 5 5 2 -5
BITMAP
30
60
c0
c8
70
ENDCHAR
STARTCHAR lstroke
ENCODING 179
SWIDTH 318 0
DWIDTH 7 0
BBX 8 19 0 0
BITMAP
0e
3e
0e
0e
1c
1d
1e
1c
1c
38
78
b8
38
38
70
70
72
74
38
ENDCHAR
STARTCHAR acute
ENCODING 180
SWIDTH 400 0
DWIDTH 10 0
BBX 6 5 2 14
BITMAP
08
1c
38
60
80
ENDCHAR
STARTCHAR lcaron
ENCODING 181
SWIDTH 520 0
DWIDTH 13 0
BBX 12 21 1 0
BITMAP
0060
00f0
1c60
7c40
1c80
1d00
3800
3800
3800
3800
3800
7000
7000
7000
7000
7000
e000
e000
e400
e800
7000
ENDCHAR
STARTCHAR sacute
ENCODING 182
SWIDTH 389 0
DWIDTH 10 0
BBX 12 19 0 0
BITMAP
0020
0070
00e0
0180
0200
0000
0f80
19c0
30c0
3000
3800
3c00
1e00
0f00
0700
0300
c300
e600
7c00
ENDCHAR
STARTCHAR caron
ENCODING 183
SWIDTH 400 0
DWIDTH 10 0
BBX 7 4 1 14
BITMAP
c6
6c
38
10
ENDCHAR
STARTCHAR cedilla
ENCODING 184
SWIDTH 400 0
DWIDTH 10 0
BBX 4 5 2 -5
BITMAP
20
60
30
30
e0
ENDCHAR
STARTCHAR scaron
ENCODING 185
SWIDTH 389 0
DWIDTH 10 0
BBX 10 18 0 0
BITMAP
18c0
0d80
0700
0200
0000
0f80
19c0
30c0
3000
3800
3c00
1e00
0f00
0700
0300
c300
e600
7c00
ENDCHAR
STARTCHAR scedilla
ENCODING 186
SWIDTH 389 0
DWIDTH 10 0
BBX 10 18 0 -5
BITMAP
0f80
19c0
30c0
3000
3800
3c00
1e00
0f00
0700
0300
c300
e600
7c00
0400
0c00
0600
0600
1c00
ENDCHAR
STARTCHAR tcaron
ENCODING 187
SWIDTH 480 0
DWIDTH 12 0
BBX 11 20 2 0
BITMAP
00c0
01e0
00c0
0080
0900
1a00
3800
ff00
3800
3800
7000
7000
7000
7000
7000
e000
e200
e400
e800
7000
ENDCHAR
STARTCHAR zacute
ENCODING 188
SWIDTH 468 0
DWIDTH 12 0
BBX 13 19 0 0
BITMAP
0010
0038
0070
00c0
0100
0000
1ff0
1fe0
3040
2080
0100
0200
0400
0800
1000
3c20
7f20
cfc0
c380
ENDCHAR
STARTCHAR doubleacute
ENCODING 189
SWIDTH 400 0
DWIDTH 10 0
BBX 7 5 1 14
BITMAP
66
66
cc
cc
88
ENDCHAR
STARTCHAR zcaron
ENCODING 190
SWIDTH 468 0
DWIDTH 12 0
BBX 12 18 0 0
BITMAP
0c60
06c0
0380
0100
0000
1ff0
1fe0
3040
2080
0100
0200
0400
0800
1000
3c20
7f20
cfc0
c380
ENDCHAR
STARTCHAR zabovedot
ENCODING 191
SWIDTH 468 0
DWIDTH 12 0
BBX 12 16 0 0
BITMAP
0180
0180
0000
1ff0
1fe0
3040
2080
0100
0200
0400
0800
1000
3c20
7f20
cfc0
c380
ENDCHAR
STARTCHAR Racute
ENCODING 192
SWIDTH 640 0
DWIDTH 16 0
BBX 17 23 -1 0
BITMAP
000400
000e00
001c00
003000
004000
000000
1ffc00
078e00
070700
070700
070700
0e0700
0e0e00
0e1c00
0ff000
0e3800
0e3c00
1c1c00
1c1c00
1c1c00
1c1e00
3c0e00
ff0f80
ENDCHAR
STARTCHAR Aacute
ENCODING 193
SWIDTH 624 0
DWIDTH 16 0
BBX 17 21 -2 0
BITMAP
000200
000700
000e00
001800
002000
000000
001800
001800
003800
007800
007800
009c00
011c00
011c00
021c00
07fc00
040e00
080e00
100e00
300e00
fc3f80
ENDCHAR
STARTCHAR Acircumflex
ENCODING 194
SWIDTH 624 0
DWIDTH 16 0
BBX 17 20 -2 0
BITMAP
001000
003800
006c00
00c600
000000
001800
001800
003800
007800
007800
009c00
011c00
011c00
021c00
07fc00
040e00
080e00
100e00
300e00
fc3f80
ENDCHAR
STARTCHAR Abreve
ENCODING 195
SWIDTH 624 0
DWIDTH 16 0
BBX 17 21 -2 0
BITMAP
008200
00fe00
007c00
000000
001800
003800
003800
007800
007800
00b800
009c00
011c00
011c00
021c00
07fc00
041c00
080e00
080e00
100e00
300e00
fc3f80
ENDCHAR
STARTCHAR Adiaeresis
ENCODING 196
SWIDTH 624 0
DWIDTH 16 0
BBX 17 18 -2 0
BITMAP
006600
006600
000000
001800
001800
003800
007800
007800
009c00
011c00
011c00
021c00
07fc00
040e00
080e00
100e00
300e00
fc3f80
ENDCHAR
STARTCHAR Lacute
ENCODING 197
SWIDTH 565 0
DWIDTH 14 0
BBX 14 23 -1 0
BITMAP
0010
0038
0070
00c0
0100
0000
1fe0
0780
0700
0700
0700
0e00
0e00
0e00
0e00
0e00
0e00
1c00
1c00
1c04
1c0c
3c18
fff8
ENDCHAR
STARTCHAR Cacute
ENCODING 198
SWIDTH 661 0
DWIDTH 17 0
BBX 16 23 1 0
BITMAP
0004
000e
001c
0030
0040
0000
03fe
0f07
1c03
3802
7002
7000
7000
e000
e000
e000
e000
e000
e002
7006
700c
381c
0fe0
ENDCHAR
STARTCHAR Ccedilla
ENCODING 199
SWIDTH 661 0
DWIDTH 17 0
BBX 16 22 1 -5
BITMAP
03fe
0f07
1c03
3802
7002
7000
7000
e000
e000
e000
e000
e000
e002
7006
700c
381c
0fe0
0200
0600
0300
0300
0e00
ENDCHAR
STARTCHAR Ccaron
ENCODING 200
SWIDTH 661 0
DWIDTH 17 0
BBX 16 22 1 0
BITMAP
0318
01b0
00e0
0040
0000
03fe
0f07
1c03
3802
7002
7000
7000
e000
e000
e000
e000
e000
e002
7006
700c
381c
0fe0
ENDCHAR
STARTCHAR Eacute
ENCODING 201
SWIDTH 596 0
DWIDTH 15 0
BBX 15 21 -1 0
BITMAP
0008
001c
0038
0060
0080
0000
1ffe
0786
0704
0704
0e00
0e08
0e08
0ff8
0e10
0e10
1c00
1c04
1c0c
3c18
fff8
ENDCHAR
STARTCHAR Eogonek
ENCODING 202
SWIDTH 596 0
DWIDTH 15 0
BBX 15 22 -1 -5
BITMAP
1ffe
0786
0704
0704
0700
0e00
0e08
0e08
0ff8
0e10
0e10
1c00
1c00
1c04
1c0c
3c18
fff8
0180
0300
0600
0640
0380
ENDCHAR
STARTCHAR Ediaeresis
ENCODING 203
SWIDTH 596 0
DWIDTH 15 0
BBX 15 18 -1 0
BITMAP
0330
0330
0000
1ffe
0786
0704
0704
0e00
0e08
0e08
0ff8
0e10
0e10
1c00
1c04
1c0c
3c18
fff8
ENDCHAR
STARTCHAR Ecaron
ENCODING 204
SWIDTH 596 0
DWIDTH 15 0
BBX 15 22 -1 0
BITMAP
0318
01b0
00e0
0040
0000
1ffe
0786
0704
0704
0700
0e00
0e08
0e08
0ff8
0e10
0e10
1c00
1c00
1c04
1c0c
3c18
fff8
ENDCHAR
STARTCHAR Iacute
ENCODING 205
SWIDTH 345 0
DWIDTH 9 0
BBX 12 21 -1 0
BITMAP
0020
0070
00e0
0180
0200
0000
1fe0
0780
0700
0700
0e00
0e00
0e00
0e00
0e00
0e00
1c00
1c00
1c00
3c00
ff00
ENDCHAR
STARTCHAR Icircumflex
ENCODING 206
SWIDTH 345 0
DWIDTH 9 0
BBX 11 20 -1 0
BITMAP
0100
0380
06c0
0c60
0000
1fe0
0780
0700
0700
0e00
0e00
0e00
0e00
0e00
0e00
1c00
1c00
1c00
3c00
ff00
ENDCHAR
STARTCHAR Dcaron
ENCODING 207
SWIDTH 763 0
DWIDTH 19 0
BBX 19 22 -1 0
BITMAP
018c00
00d800
007000
002000
000000
1ffe00
078380
0701c0
0701c0
0700e0
0e00e0
0e00e0
0e00e0
0e00e0
0e00e0
0e01c0
1c01c0
1c01c0
1c0380
1c0700
3c1e00
fff800
ENDCHAR
STARTCHAR Dstroke
ENCODING 208
SWIDTH 770 0
DWIDTH 19 0
BBX 19 17 -1 0
BITMAP
1ffe00
078380
0701c0
0701c0
0700e0
0e00e0
0e00e0
3fc0e0
0e00e0
0e00e0
0e01c0
1c01c0
1c01c0
1c0380
1c0700
3c1e00
fff800
ENDCHAR
STARTCHAR Nacute
ENCODING 209
SWIDTH 763 0
DWIDTH 19 0
BBX 21 23 -1 0
BITMAP
000080
0001c0
000380
000600
000800
000000
1f81f8
078060
07c040
05c040
05e040
04e040
0cf0c0
087080
087880
083880
083c80
181d80
101f00
100f00
100f00
300700
fc0700
ENDCHAR
STARTCHAR Ncaron
ENCODING 210
SWIDTH 763 0
DWIDTH 19 0
BBX 21 22 -1 0
BITMAP
006300
003600
001c00
000800
000000
1f81f8
078060
07c040
05c040
05e040
04e040
0cf0c0
087080
087880
083880
083c80
181d80
101f00
100f00
100f00
300700
fc0700
ENDCHAR
STARTCHAR Oacute
ENCODING 211
SWIDTH 753 0
DWIDTH 19 0
BBX 17 21 1 0
BITMAP
001000
003800
007000
00c000
010000
000000
03f800
0f0e00
1c0700
380700
700380
700380
700380
e00380
e00700
e00700
e00700
700e00
701c00
387800
0fe000
ENDCHAR
STARTCHAR Ocircumflex
ENCODING 212
SWIDTH 753 0
DWIDTH 19 0
BBX 17 20 1 0
BITMAP
004000
00e000
01b000
031800
000000
03f800
0f0e00
1c0700
380700
700380
700380
700380
e00380
e00700
e00700
e00700
700e00
701c00
387800
0fe000
ENDCHAR
STARTCHAR Odoubleacute
ENCODING 213
SWIDTH 753 0
DWIDTH 19 0
BBX 17 23 1 0
BITMAP
00cc00
00cc00
019800
019800
011000
000000
03f800
0f0e00
1c0700
380700
700380
700380
700380
e00380
e00380
e00380
e00700
e00700
e00700
700e00
701c00
387800
0fe000
ENDCHAR
STARTCHAR Odiaeresis
ENCODING 214
SWIDTH 753 0
DWIDTH 19 0
BBX 17 18 1 0
BITMAP
019800
019800
000000
03f800
0f0e00
1c0700
380700
700380
700380
700380
e00380
e00700
e00700
e00700
700e00
701c00
387800
0fe000
ENDCHAR
STARTCHAR multiply
ENCODING 215
SWIDTH 570 0
DWIDTH 14 0
BBX 12 12 1 1
BITMAP
4020
e070
70e0
39c0
1f80
0e00
0700
1f80
39c0
70e0
e070
4020
ENDCHAR
STARTCHAR Rcaron
ENCODING 216
SWIDTH 640 0
DWIDTH 16 0
BBX 17 22 -1 0
BITMAP
031800
01b000
00e000
004000
000000
1ffc00
078e00
070700
070700
070700
0e0700
0e0e00
0e1c00
0ff000
0e3800
0e3c00
1c1c00
1c1c00
1c1c00
1c1e00
3c0e00
ff0f80
ENDCHAR
STARTCHAR Uring
ENCODING 217
SWIDTH 794 0
DWIDTH 20 0
BBX 18 23 2 0
BITMAP
00e000
019000
011000
013000
00e000
000000
ff3fc0
3c0f00
380e00
380e00
380e00
700e00
701c00
701c00
701c00
701c00
e01c00
e03800
e03800
e03800
e07000
70e000
3fc000
ENDCHAR
STARTCHAR Uacute
ENCODING 218
SWIDTH 794 0
DWIDTH 20 0
BBX 18 21 2 0
BITMAP
000800
001c00
003800
006000
008000
000000
ff3fc0
3c0f00
380e00
380e00
700e00
701c00
701c00
701c00
701c00
e01c00
e03800
e03800
e07000
70e000
3fc000
ENDCHAR
STARTCHAR Udoubleacute
ENCODING 219
SWIDTH 794 0
DWIDTH 20 0
BBX 18 23 2 0
BITMAP
00cc00
00cc00
019800
019800
011000
000000
ff3fc0
3c0f00
380e00
380e00
380e00
700e00
701c00
701c00
701c00
701c00
e01c00
e03800
e03800
e03800
e07000
70e000
3fc000
ENDCHAR
STARTCHAR Udiaeresis
ENCODING 220
SWIDTH 794 0
DWIDTH 20 0
BBX 18 18 2 0
BITMAP
019800
019800
000000
ff3fc0
3c0f00
380e00
380e00
700e00
701c00
701c00
701c00
701c00
e01c00
e03800
e03800
e07000
70e000
3fc000
ENDCHAR
STARTCHAR Yacute
ENCODING 221
SWIDTH 591 0
DWIDTH 15 0
BBX 16 21 1 0
BITMAP
0010
0038
0070
00c0
0100
0000
fc3f
300c
3018
1830
1860
18c0
0d80
0f00
0e00
0c00
0c00
1800
1800
3800
fe00
ENDCHAR
STARTCHAR Tcedilla
ENCODING 222
SWIDTH 606 0
DWIDTH 15 0
BBX 14 22 1 -5
BITMAP
fffc
c78c
8704
0700
0700
0e00
0e00
0e00
0e00
0e00
0e00
1c00
1c00
1c00
1c00
3c00
ff00
0100
0300
0180
0180
0700
ENDCHAR
STARTCHAR ssharp
ENCODING 223
SWIDTH 577 0
DWIDTH 15 0
BBX 18 24 -3 -5
BITMAP
001f00
006180
00c0c0
01c0c0
01c0c0
01c180
078300
038c00
039800
039800
039c00
071c00
070e00
070e00
070700
070700
0e2700
0e7600
0e3c00
0e0000
0e0000
4c0000
e80000
700000
ENDCHAR
STARTCHAR racute
ENCODING 224
SWIDTH 402 0
DWIDTH 10 0
BBX 11 19 1 0
BITMAP
0040
00e0
01c0
0300
0400
0000
3980
fbc0
3f80
3800
3800
7000
7000
7000
7000
e000
e000
e000
e000
ENDCHAR
STARTCHAR aacute
ENCODING 225
SWIDTH 561 0
DWIDTH 14 0
BBX 13 19 1 0
BITMAP
0010
0038
0070
00c0
0100
0000
0770
1cf0
3870
7870
70e0
f0e0
e0e0
e0e0
e1c0
e1c0
e3c8
65d0
38e0
ENDCHAR
STARTCHAR acircumflex
ENCODING 226
SWIDTH 561 0
DWIDTH 14 0
BBX 13 18 1 0
BITMAP
0100
0380
06c0
0c60
0000
0770
1cf0
3870
7870
70e0
f0e0
e0e0
e0e0
e1c0
e1c0
e3c8
65d0
38e0
ENDCHAR
STARTCHAR abreve
ENCODING 227
SWIDTH 561 0
DWIDTH 14 0
BBX 13 17 1 0
BITMAP
0820
0fe0
07c0
0000
0770
1cf0
3870
7870
70e0
f0e0
e0e0
e0e0
e1c0
e1c0
e3c8
65d0
38e0
ENDCHAR
STARTCHAR adiaeresis
ENCODING 228
SWIDTH 561 0
DWIDTH 14 0
BBX 13 16 1 0
BITMAP
0660
0660
0000
0770
1cf0
3870
7870
70e0
f0e0
e0e0
e0e0
e1c0
e1c0
e3c8
65d0
38e0
ENDCHAR
STARTCHAR lacute
ENCODING 229
SWIDTH 306 0
DWIDTH 7 0
BBX 9 25 1 0
BITMAP
0100
0380
0700
0c00
1000
0000
1c00
7c00
1c00
1c00
3800
3800
3800
3800
3800
7000
7000
7000
7000
7000
e000
e000
e400
e800
7000
ENDCHAR
STARTCHAR cacute
ENCODING 230
SWIDTH 441 0
DWIDTH 12 0
BBX 12 19 1 0
BITMAP
0020
0070
00e0
0180
0200
0000
07c0
1ce0
3860
7840
7000
f000
e000
e000
e000
e000
e080
7100
3e00
ENDCHAR
STARTCHAR ccedilla
ENCODING 231
SWIDTH 441 0
DWIDTH 12 0
BBX 11 18 1 -5
BITMAP
07c0
1ce0
3860
7840
7000
f000
e000
e000
e000
e000
e080
7100
3e00
0800
1800
0c00
0c00
3800
ENDCHAR
STARTCHAR ccaron
ENCODING 232
SWIDTH 441 0
DWIDTH 12 0
BBX 11 18 1 0
BITMAP
18c0
0d80
0700
0200
0000
07c0
1ce0
3860
7840
7000
f000
e000
e000
e000
e000
e080
7100
3e00
ENDCHAR
STARTCHAR eacute
ENCODING 233
SWIDTH 453 0
DWIDTH 12 0
BBX 11 19 1 0
BITMAP
0040
00e0
01c0
0300
0400
0000
07c0
1ce0
38e0
78e0
71c0
f180
e600
f800
e000
e000
e080
7100
3e00
ENDCHAR
STARTCHAR eogonek
ENCODING 234
SWIDTH 453 0
DWIDTH 12 0
BBX 11 18 1 -5
BITMAP
07c0
1ce0
38e0
78e0
71c0
f180
e600
f800
e000
e000
e080
7100
3e00
0600
0c00
1800
1900
0e00
ENDCHAR
STARTCHAR ediaeresis
ENCODING 235
SWIDTH 453 0
DWIDTH 12 0
BBX 11 16 1 0
BITMAP
0cc0
0cc0
0000
07c0
1ce0
38e0
78e0
71c0
f180
e600
f800
e000
e000
e080
7100
3e00
ENDCHAR
STARTCHAR ecaron
ENCODING 236
SWIDTH 453 0
DWIDTH 12 0
BBX 11 18 1 0
BITMAP
18c0
0d80
0700
0200
0000
07c0
1ce0
38e0
78e0
71c0
f180
e600
f800
e000
e000
e080
7100
3e00
ENDCHAR
STARTCHAR iacute
ENCODING 237
SWIDTH 317 0
DWIDTH 7 0
BBX 8 19 1 0
BITMAP
02
07
0e
18
20
00
38
f8
38
38
70
70
70
70
e0
e0
e4
e8
70
ENDCHAR
STARTCHAR icircumflex
ENCODING 238
SWIDTH 317 0
DWIDTH 7 0
BBX 7 18 1 0
BITMAP
10
38
6c
c6
00
38
f8
38
38
70
70
70
70
e0
e0
e4
e8
70
ENDCHAR
STARTCHAR dcaron
ENCODING 239
SWIDTH 800 0
DWIDTH 20 0
BBX 19 21 1 0
BITMAP
0000c0
0001e0
0038c0
00f880
003900
003a00
003800
007000
07f000
1c7000
387000
787000
70e000
f0e000
e0e000
e0e000
e1c000
e1c000
e3c800
65d000
38e000
ENDCHAR
STARTCHAR dstroke
ENCODING 240
SWIDTH 680 0
DWIDTH 17 0
BBX 16 19 1 0
BITMAP
0038
00f8
0038
01ff
01ff
0070
07f0
1c70
3870
7870
70e0
f0e0
e0e0
e0e0
e1c0
e1c0
e3c8
65d0
38e0
ENDCHAR
STARTCHAR nacute
ENCODING 241
SWIDTH 618 0
DWIDTH 15 0
BBX 14 19 1 0
BITMAP
0020
0070
00e0
0180
0200
0000
3870
f8b8
3938
3a38
7438
7870
7070
7070
7070
e0e0
e0e4
e0e8
e070
ENDCHAR
STARTCHAR ncaron
ENCODING 242
SWIDTH 618 0
DWIDTH 15 0
BBX 14 18 1 0
BITMAP
18c0
0d80
0700
0200
0000
3870
f8b8
3938
3a38
7438
7870
7070
7070
7070
e0e0
e0e4
e0e8
e070
ENDCHAR
STARTCHAR oacute
ENCODING 243
SWIDTH 537 0
DWIDTH 14 0
BBX 12 19 1 0
BITMAP
0020
0070
00e0
0180
0200
0000
07c0
1ce0
3870
7870
7070
f070
e070
e0f0
e0e0
e1e0
e1c0
7380
3e00
ENDCHAR
STARTCHAR ocircumflex
ENCODING 244
SWIDTH 537 0
DWIDTH 14 0
BBX 12 18 1 0
BITMAP
0100
0380
06c0
0c60
0000
07c0
1ce0
3870
7870
7070
f070
e070
e0f0
e0e0
e1e0
e1c0
7380
3e00
ENDCHAR
STARTCHAR odoubleacute
ENCODING 245
SWIDTH 537 0
DWIDTH 14 0
BBX 12 19 1 0
BITMAP
0330
0330
0660
0660
0440
0000
07c0
1ce0
3870
7870
7070
f070
e070
e0f0
e0e0
e1e0
e1c0
7380
3e00
ENDCHAR
STARTCHAR odiaeresis
ENCODING 246
SWIDTH 537 0
DWIDTH 14 0
BBX 12 16 1 0
BITMAP
0660
0660
0000
07c0
1ce0
3870
7870
7070
f070
e070
e0f0
e0e0
e1e0
e1c0
7380
3e00
ENDCHAR
STARTCHAR division
ENCODING 247
SWIDTH 570 0
DWIDTH 14 0
BBX 12 12 1 0
BITMAP
0600
0f00
0600
0000
0000
fff0
fff0
0000
0000
0600
0f00
0600
ENDCHAR
STARTCHAR rcaron
ENCODING 248
SWIDTH 402 0
DWIDTH 10 0
BBX 10 18 1 0
BITMAP
3180
1b00
0e00
0400
0000
3980
fbc0
3f80
3800
3800
7000
7000
7000
7000
e000
e000
e000
e000
ENDCHAR
STARTCHAR uring
ENCODING 249
SWIDTH 618 0
DWIDTH 15 0
BBX 14 19 1 0
BITMAP
0700
0c80
0880
0980
0700
0000
3838
f838
3838
3838
7070
7070
7070
70f0
e170
e2e4
e4e4
e8e8
7070
ENDCHAR
STARTCHAR uacute
ENCODING 250
SWIDTH 618 0
DWIDTH 15 0
BBX 14 19 1 0
BITMAP
0020
0070
00e0
0180
0200
0000
3838
f838
3838
3838
7070
7070
7070
70f0
e170
e2e4
e4e4
e8e8
7070
ENDCHAR
STARTCHAR udoubleacute
ENCODING 251
SWIDTH 618 0
DWIDTH 15 0
BBX 14 19 1 0
BITMAP
0660
0660
0cc0
0cc0
0880
0000
3838
f838
3838
3838
7070
7070
7070
70f0
e170
e2e4
e4e4
e8e8
7070
ENDCHAR
STARTCHAR udiaeresis
ENCODING 252
SWIDTH 618 0
DWIDTH 15 0
BBX 14 16 1 0
BITMAP
0660
0660
0000
3838
f838
3838
3838
7070
7070
7070
70f0
e170
e2e4
e4e4
e8e8
7070
ENDCHAR
STARTCHAR yacute
ENCODING 253
SWIDTH 468 0
DWIDTH 12 0
BBX 15 24 -2 -5
BITMAP
0004
000e
001c
0030
0040
0000
0e0c
3e0c
0e08
0e10
0e10
0720
0720
0740
0740
0780
0780
0700
0700
0600
0600
4400
e800
7000
ENDCHAR
STARTCHAR tcedilla
ENCODING 254
SWIDTH 341 0
DWIDTH 9 0
BBX 8 21 2 -5
BITMAP
08
18
38
ff
38
38
70
70
70
70
70
e0
e2
e4
e8
70
08
18
0c
0c
38
ENDCHAR
STARTCHAR abovedot
ENCODING 255
SWIDTH 402 0
DWIDTH 10 0
BBX 2 2 3 14
BITMAP
c0
c0
ENDCHAR
ENDFONT
